<svg version="1.1" xmlns="http://www.w3.org/2000/svg" xmlns:xlink="http://www.w3.org/1999/xlink" viewBox="0 0 226 226"><defs><linearGradient x1="67.09375" y1="87.39844" x2="67.09375" y2="112.11719" gradientUnits="userSpaceOnUse" id="color-1"><stop offset="0" stop-color="#8ab4ff"></stop><stop offset="1" stop-color="#7ddaff"></stop></linearGradient><linearGradient x1="113" y1="52.52734" x2="113" y2="189.96359" gradientUnits="userSpaceOnUse" id="color-2"><stop offset="0" stop-color="#1a6dff"></stop><stop offset="1" stop-color="#0fc6ff"></stop></linearGradient><linearGradient x1="67.09375" y1="52.52734" x2="67.09375" y2="189.96359" gradientUnits="userSpaceOnUse" id="color-3"><stop offset="0" stop-color="#1a6dff"></stop><stop offset="1" stop-color="#0fc6ff"></stop></linearGradient><linearGradient x1="45.90625" y1="52.52734" x2="45.90625" y2="189.96359" gradientUnits="userSpaceOnUse" id="color-4"><stop offset="0" stop-color="#1a6dff"></stop><stop offset="1" stop-color="#0fc6ff"></stop></linearGradient><linearGradient x1="60.03125" y1="52.52734" x2="60.03125" y2="189.96359" gradientUnits="userSpaceOnUse" id="color-5"><stop offset="0" stop-color="#1a6dff"></stop><stop offset="1" stop-color="#0fc6ff"></stop></linearGradient><linearGradient x1="74.15625" y1="52.52734" x2="74.15625" y2="189.96359" gradientUnits="userSpaceOnUse" id="color-6"><stop offset="0" stop-color="#1a6dff"></stop><stop offset="1" stop-color="#0fc6ff"></stop></linearGradient><linearGradient x1="88.28125" y1="52.52734" x2="88.28125" y2="189.96359" gradientUnits="userSpaceOnUse" id="color-7"><stop offset="0" stop-color="#1a6dff"></stop><stop offset="1" stop-color="#0fc6ff"></stop></linearGradient><linearGradient x1="151.84375" y1="52.52734" x2="151.84375" y2="189.96359" gradientUnits="userSpaceOnUse" id="color-8"><stop offset="0" stop-color="#1a6dff"></stop><stop offset="1" stop-color="#0fc6ff"></stop></linearGradient><linearGradient x1="151.84375" y1="52.52734" x2="151.84375" y2="189.96359" gradientUnits="userSpaceOnUse" id="color-9"><stop offset="0" stop-color="#1a6dff"></stop><stop offset="1" stop-color="#0fc6ff"></stop></linearGradient><linearGradient x1="113" y1="37.51953" x2="113" y2="47.68247" gradientUnits="userSpaceOnUse" id="color-10"><stop offset="0" stop-color="#8ab4ff"></stop><stop offset="1" stop-color="#7ddaff"></stop></linearGradient></defs><g fill="none" fill-rule="nonzero" stroke="none" stroke-width="1" stroke-linecap="butt" stroke-linejoin="miter" stroke-miterlimit="10" stroke-dasharray="" stroke-dashoffset="0" font-family="none" font-weight="none" font-size="none" text-anchor="none" style="mix-blend-mode: normal"><path d="M0,226v-226h226v226z" fill="none"></path><g><path d="M77.6875,105.9375c0,1.94925 -1.582,3.53125 -3.53125,3.53125h-14.125c-1.94925,0 -3.53125,-1.582 -3.53125,-3.53125v-14.125c0,-1.94925 1.582,-3.53125 3.53125,-3.53125h14.125c1.94925,0 3.53125,1.582 3.53125,3.53125z" fill="url(#color-1)"></path><path d="M194.21875,52.96875h-162.4375c-5.84069,0 -10.59375,4.75306 -10.59375,10.59375v113c0,5.84069 4.75306,10.59375 10.59375,10.59375h162.4375c5.84069,0 10.59375,-4.75306 10.59375,-10.59375v-113c0,-5.84069 -4.75306,-10.59375 -10.59375,-10.59375zM197.75,176.5625c0,1.94925 -1.582,3.53125 -3.53125,3.53125h-162.4375c-1.94925,0 -3.53125,-1.582 -3.53125,-3.53125v-113c0,-1.94925 1.582,-3.53125 3.53125,-3.53125h162.4375c1.94925,0 3.53125,1.582 3.53125,3.53125z" fill="url(#color-2)"></path><path d="M81.21875,74.15625h-28.25c-5.84069,0 -10.59375,4.75306 -10.59375,10.59375v28.25c0,5.84069 4.75306,10.59375 10.59375,10.59375h28.25c5.84069,0 10.59375,-4.75306 10.59375,-10.59375v-28.25c0,-5.84069 -4.75306,-10.59375 -10.59375,-10.59375zM84.75,113c0,1.94925 -1.582,3.53125 -3.53125,3.53125h-28.25c-1.94925,0 -3.53125,-1.582 -3.53125,-3.53125v-28.25c0,-1.94925 1.582,-3.53125 3.53125,-3.53125h28.25c1.94925,0 3.53125,1.582 3.53125,3.53125z" fill="url(#color-3)"></path><path d="M42.375,151.84375h7.0625v14.125h-7.0625z" fill="url(#color-4)"></path><path d="M56.5,137.71875h7.0625v28.25h-7.0625z" fill="url(#color-5)"></path><path d="M70.625,137.71875h7.0625v28.25h-7.0625z" fill="url(#color-6)"></path><path d="M84.75,151.84375h7.0625v14.125h-7.0625z" fill="url(#color-7)"></path><path d="M170.64059,112.14191c1.51844,-2.91681 2.39066,-6.22559 2.39066,-9.73566v-7.0625c0,-11.68491 -9.50259,-21.1875 -21.1875,-21.1875c-11.68491,0 -21.1875,9.50259 -21.1875,21.1875v7.0625c0,3.51006 0.87222,6.81884 2.39066,9.73566c-8.06891,5.94662 -12.98441,15.44216 -12.98441,25.57684v7.0625c0,3.89497 3.16753,7.0625 7.0625,7.0625h49.4375c3.89497,0 7.0625,-3.16753 7.0625,-7.0625v-7.0625c0,-10.13469 -4.9155,-19.63022 -12.98441,-25.57684zM137.71875,95.34375c0,-7.78994 6.33506,-14.125 14.125,-14.125c7.78994,0 14.125,6.33506 14.125,14.125v7.0625c0,7.78994 -6.33506,14.125 -14.125,14.125c-7.78994,0 -14.125,-6.33506 -14.125,-14.125zM176.5625,144.78125h-49.4375v-7.0625c0,-7.91353 3.85612,-15.31856 10.17353,-19.9445c3.79963,3.59481 8.91288,5.8195 14.54522,5.8195c5.63234,0 10.74559,-2.22116 14.54169,-5.8195c6.32094,4.62594 10.17706,12.03097 10.17706,19.9445z" fill="url(#color-8)"></path><path d="M120.0625,158.90625h63.5625v7.0625h-63.5625z" fill="url(#color-9)"></path><path d="M28.25,38.84375h169.5v7.0625h-169.5z" fill="url(#color-10)"></path></g></g></svg>