<svg version="1.1" xmlns="http://www.w3.org/2000/svg" xmlns:xlink="http://www.w3.org/1999/xlink" viewBox="0 0 172 172"><defs><linearGradient x1="56.4375" y1="13.77344" x2="56.4375" y2="96.793" gradientUnits="userSpaceOnUse" id="color-1"><stop offset="0" stop-color="#3b82ff"></stop><stop offset="1" stop-color="#0fc6ff"></stop></linearGradient><linearGradient x1="56.4375" y1="13.77344" x2="56.4375" y2="96.793" gradientUnits="userSpaceOnUse" id="color-2"><stop offset="0" stop-color="#3b82ff"></stop><stop offset="1" stop-color="#0fc6ff"></stop></linearGradient><linearGradient x1="126.3125" y1="70.54688" x2="126.3125" y2="134.17075" gradientUnits="userSpaceOnUse" id="color-3"><stop offset="0" stop-color="#3b82ff"></stop><stop offset="1" stop-color="#0fc6ff"></stop></linearGradient><linearGradient x1="126.3125" y1="87.00781" x2="126.3125" y2="116.93581" gradientUnits="userSpaceOnUse" id="color-4"><stop offset="0" stop-color="#abc9ff"></stop><stop offset="1" stop-color="#7fe0ff"></stop></linearGradient><linearGradient x1="56.4375" y1="112.20313" x2="56.4375" y2="157.90944" gradientUnits="userSpaceOnUse" id="color-5"><stop offset="0" stop-color="#abc9ff"></stop><stop offset="1" stop-color="#7fe0ff"></stop></linearGradient></defs><g fill="none" fill-rule="nonzero" stroke="none" stroke-width="1" stroke-linecap="butt" stroke-linejoin="miter" stroke-miterlimit="10" stroke-dasharray="" stroke-dashoffset="0" font-family="none" font-weight="none" font-size="none" text-anchor="none" style="mix-blend-mode: normal"><path d="M0,172v-172h172v172z" fill="none"></path><g><path d="M96.75,53.74463c0,-2.96163 -2.408,-5.36963 -5.36962,-5.36963l-3.75444,-0.086c-0.62619,-2.39725 -1.56681,-4.65206 -2.69019,-6.79131l0.05912,-0.03225c-0.44881,-0.85462 -0.31175,-1.86781 0.344,-2.52356l1.51306,-1.51306c1.01319,-1.01319 1.5695,-2.35963 1.5695,-3.79206c0,-1.43244 -0.55631,-2.77887 -1.5695,-3.79206l-3.81894,-3.81894c-2.02638,-2.02637 -5.55775,-2.02637 -7.58412,0l-1.51306,1.51306c-0.65575,0.65575 -1.67431,0.79013 -2.52356,0.344l-0.05912,0.11019c-2.16075,-1.10994 -4.43706,-2.02638 -6.85312,-2.61225v-3.44538c0,-3.311 -2.30856,-5.81037 -5.36963,-5.81037h-5.38575c-2.96162,0 -5.36962,2.408 -5.36962,5.36962l-0.086,3.75444c-2.39725,0.6235 -4.65206,1.56681 -6.79131,2.69019l-0.03225,-0.05913c-0.84925,0.44613 -1.86781,0.31175 -2.52356,-0.344l-1.51306,-1.51306c-2.02637,-2.02637 -5.55775,-2.02637 -7.58412,0l-3.81894,3.81894c-1.01319,1.01319 -1.5695,2.35963 -1.5695,3.79206c0,1.43244 0.55631,2.77887 1.5695,3.79206l1.51575,1.51575c0.65306,0.65306 0.79013,1.66625 0.34131,2.52088l0.11019,0.05644c-1.10994,2.16075 -2.02637,4.43706 -2.61225,6.85313h-3.44537c-3.311,0.00269 -5.81037,2.31125 -5.81037,5.37231v5.38575c0,2.96162 2.408,5.36962 5.36962,5.36962l3.75444,0.086c0.62619,2.39725 1.56681,4.65206 2.69019,6.79131l-0.05913,0.03225c0.44881,0.85462 0.31175,1.86781 -0.344,2.52356l-1.51306,1.51306c-1.01319,1.01319 -1.5695,2.35962 -1.5695,3.79206c0,1.43244 0.55631,2.77887 1.5695,3.79206l3.81894,3.81894c1.01319,1.01319 2.35963,1.5695 3.79206,1.5695c1.43244,0 2.77887,-0.55631 3.79206,-1.5695l1.51306,-1.51306c0.65575,-0.65575 1.67431,-0.79281 2.52356,-0.344l0.05913,-0.11019c2.16075,1.10994 4.43706,2.02638 6.85312,2.61225v3.44269c0,3.31369 2.30856,5.81306 5.36963,5.81306h5.38575c2.96162,0 5.36962,-2.408 5.36962,-5.36962l0.086,-3.75444c2.39725,-0.6235 4.65206,-1.56681 6.79131,-2.69019l0.03225,0.05912c0.85731,-0.4515 1.86781,-0.31175 2.52356,0.344l1.51306,1.51306c1.01319,1.01319 2.35962,1.5695 3.79206,1.5695c1.43244,0 2.77887,-0.55631 3.79206,-1.5695l3.81894,-3.81894c1.01319,-1.01319 1.5695,-2.35962 1.5695,-3.79206c0,-1.43244 -0.55631,-2.77887 -1.5695,-3.79206l-1.51306,-1.51306c-0.65575,-0.65575 -0.79281,-1.66894 -0.344,-2.52356l-0.11019,-0.05644c1.10994,-2.16075 2.02638,-4.43706 2.61225,-6.85313h3.44269c3.31369,-0.00269 5.81306,-2.31125 5.81306,-5.37231zM77.73594,31.33625l1.49962,-1.51306l3.81894,3.80281l-1.51306,1.51306c-0.18275,0.18006 -0.33325,0.38162 -0.49181,0.57781c-1.18788,-1.40556 -2.49131,-2.70094 -3.89956,-3.87806c0.19619,-0.16394 0.40044,-0.31713 0.58588,-0.50256zM31.33625,35.13906l-1.51306,-1.49963l3.80281,-3.81894l1.51306,1.51306c0.18275,0.18006 0.38162,0.33325 0.57781,0.49181c-1.40556,1.18787 -2.70094,2.49131 -3.87806,3.90225c-0.16394,-0.19888 -0.31713,-0.40313 -0.50256,-0.58856zM35.13906,81.53875l-1.49963,1.51306l-3.81894,-3.80281l1.51306,-1.51306c0.18275,-0.18275 0.33325,-0.38431 0.4945,-0.5805c1.18787,1.40556 2.49131,2.70094 3.90225,3.87806c-0.20156,0.16662 -0.40581,0.31981 -0.59125,0.50525zM81.53875,77.73594l1.51306,1.49962l-3.80281,3.81894l-1.51306,-1.51306c-0.18275,-0.18275 -0.38431,-0.33325 -0.5805,-0.4945c1.40556,-1.18788 2.70094,-2.48862 3.87806,-3.89956c0.16662,0.19888 0.31981,0.40313 0.50525,0.58856zM90.93963,59.125h-3.44269c-2.36769,0 -4.43975,1.63669 -5.04175,3.98288c-2.41606,9.45463 -9.7825,16.85331 -19.21831,19.31506c-2.42144,0.62619 -4.11188,2.77081 -4.11188,5.21375l0.00537,3.73831l-5.28363,0.05375c-0.02419,-0.03225 -0.09675,-0.18812 -0.09675,-0.48913v-3.44269c0,-2.36769 -1.63669,-4.43975 -3.98287,-5.04175c-9.45462,-2.41606 -16.85331,-9.7825 -19.31506,-19.21831c-0.62619,-2.42144 -2.77081,-4.11188 -5.21375,-4.11188l-3.73831,0.00537l-0.05375,-5.28363c0.03225,-0.02419 0.18812,-0.09675 0.48912,-0.09675h3.44269c2.36769,0 4.43975,-1.63669 5.04175,-3.98287c2.41606,-9.45462 9.7825,-16.85331 19.21831,-19.31506c2.42144,-0.62619 4.11188,-2.77081 4.11188,-5.21375l-0.00537,-3.73831l5.28363,-0.05375c0.02419,0.03225 0.09675,0.18812 0.09675,0.48912v3.44269c0,2.36769 1.63669,4.43975 3.98288,5.04175c9.45463,2.41606 16.85331,9.7825 19.31506,19.21831c0.62619,2.42144 2.77081,4.11188 5.21375,4.11188h3.73831l0.05375,5.27825c-0.03225,0.02419 -0.18812,0.09675 -0.48913,0.09675z" fill="url(#color-1)"></path><path d="M56.4375,34.9375c-11.85456,0 -21.5,9.64544 -21.5,21.5c0,11.85456 9.64544,21.5 21.5,21.5c11.85456,0 21.5,-9.64544 21.5,-21.5c0,-11.85456 -9.64544,-21.5 -21.5,-21.5zM56.4375,72.5625c-8.89294,0 -16.125,-7.23206 -16.125,-16.125c0,-8.89294 7.23206,-16.125 16.125,-16.125c8.89294,0 16.125,7.23206 16.125,16.125c0,8.89294 -7.23206,16.125 -16.125,16.125z" fill="url(#color-2)"></path><path d="M150.5,94.0625h-1.40287c-0.28219,-0.80088 -0.60737,-1.57756 -0.97019,-2.34081l0.989,-0.98631c1.01587,-1.01319 1.57756,-2.35156 1.57756,-3.78669c0,-1.43781 -0.559,-2.76544 -1.57487,-3.78131l-3.80013,-3.75175c-1.01587,-1.01588 -2.365,-1.47813 -3.80013,-1.47813c-0.00269,0 -0.00269,0 -0.00538,0c-1.43512,0 -2.78425,0.46494 -3.79475,1.47813l-0.94063,0.84387c-0.69875,-0.37356 -1.45931,-0.72025 -2.40262,-1.02394v-1.29806c0,-2.96431 -2.41069,-5.375 -5.375,-5.375h-5.375c-2.96431,0 -5.375,2.41069 -5.375,5.375v1.29806c-0.94331,0.30369 -1.70387,0.69875 -2.40262,1.06963l-0.93794,-0.88956c-1.0105,-1.01319 -2.35963,-1.47813 -3.79475,-1.47813c-0.00269,0 -0.00269,0 -0.00538,0c-1.43512,0 -2.78425,0.46225 -3.80012,1.47813l-3.80013,3.70337c-1.01588,1.01588 -1.57487,2.36769 -1.57487,3.8055c0,1.43512 0.56169,2.78425 1.57487,3.79475l0.99169,0.99437c-0.3655,0.76325 -0.688,1.54531 -0.97019,2.34619h-1.40556c-2.96431,0 -5.375,2.41069 -5.375,5.375v5.375c0,2.96431 2.41069,5.375 5.375,5.375h1.40287c0.28219,0.80088 0.60738,1.57487 0.97019,2.34081l-0.989,0.98631c-1.01588,1.01319 -1.57756,2.35156 -1.57756,3.78669c0,1.43781 0.559,2.76544 1.57487,3.78131l3.80013,3.75175c1.01588,1.01587 2.365,1.47812 3.80013,1.47812c0.00269,0 0.00269,0 0.00538,0c1.43512,0 2.78425,-0.46494 3.79475,-1.47812l0.94062,-0.84388c0.69875,0.37356 1.45931,0.72294 2.40263,1.02394v1.30075c0,2.96431 2.41069,5.375 5.375,5.375h5.375c2.96431,0 5.375,-2.41069 5.375,-5.375v-1.29806c0.94331,-0.301 1.70388,-0.69875 2.40263,-1.06963l0.93794,0.88956c1.0105,1.01319 2.35963,1.47812 3.79475,1.47812c0.00269,0 0.00269,0 0.00538,0c1.43512,0 2.78425,-0.46225 3.80013,-1.47812l3.80013,-3.70338c1.01587,-1.01587 1.57487,-2.36769 1.57487,-3.8055c0,-1.43512 -0.56169,-2.78425 -1.57487,-3.79475l-0.99169,-0.99437c0.3655,-0.76325 0.688,-1.54531 0.97019,-2.34619h1.40556c2.96431,0 5.375,-2.41069 5.375,-5.375v-5.375c0,-2.967 -2.41069,-5.37769 -5.375,-5.37769zM150.5,104.8125h-5.47175l-0.51869,2.01563c-0.44075,1.70387 -1.11531,3.32981 -2.00488,4.83481l-1.05888,1.79525l3.87,3.87l-3.80013,3.80013l-3.87,-3.87l-2.20913,1.30612c-1.40019,0.83581 -2.24675,1.33569 -4.24894,1.71731l-2.18762,0.41387v5.61688h-5.375v-5.61688l-2.18494,-0.41388c-2.00219,-0.38163 -2.84875,-0.8815 -4.24894,-1.71731l-2.20913,-1.30612l-3.87,3.87l-3.80012,-3.80013l3.87,-3.87l-1.05888,-1.79525c-0.88956,-1.505 -1.56144,-3.13094 -1.9995,-4.83213l-0.52137,-2.01831h-5.47712v-5.375h5.47712l0.51869,-2.01831c0.43806,-1.70119 1.10994,-3.32712 1.9995,-4.83213l1.05888,-1.79525l-3.87,-3.87l3.80012,-3.80013l3.87,3.87l2.20913,-1.30344c1.40019,-0.83581 2.24675,-1.33837 4.24625,-1.71731l2.19031,-0.41119v-5.62225h5.375v5.62225l2.18762,0.41119c1.9995,0.37894 2.84606,0.8815 4.24625,1.71731l2.20913,1.30344l3.87,-3.87l3.80013,3.80012l-3.87,3.87l1.05888,1.79525c0.88956,1.505 1.56412,3.13094 2.00487,4.83481l0.52137,2.01563h5.47175z" fill="url(#color-3)"></path><path d="M126.3125,88.6875c-7.42133,0 -13.4375,6.01617 -13.4375,13.4375c0,7.42133 6.01617,13.4375 13.4375,13.4375c7.42133,0 13.4375,-6.01617 13.4375,-13.4375c0,-7.42133 -6.01617,-13.4375 -13.4375,-13.4375z" fill="url(#color-4)"></path><path d="M73.90625,129h-0.56437c-1.45125,0 -2.17687,-1.74688 -1.15563,-2.76812l0.40312,-0.40313c1.58563,-1.58563 1.58563,-4.13875 0,-5.6975l-1.90812,-1.90812c-1.55875,-1.58563 -4.11187,-1.58563 -5.6975,0l-0.40312,0.40312c-1.02125,1.02125 -2.76812,0.29563 -2.76812,-1.15563v-0.56437c0,-2.23062 -1.80063,-4.03125 -4.03125,-4.03125h-2.6875c-2.23062,0 -4.03125,1.80063 -4.03125,4.03125v0.56437c0,1.45125 -1.74687,2.17688 -2.76813,1.15563l-0.40312,-0.40312c-1.58563,-1.58563 -4.13875,-1.58563 -5.6975,0l-1.90813,1.90812c-1.58563,1.55875 -1.58563,4.11187 0,5.6975l0.40313,0.40313c1.02125,1.02125 0.29562,2.76812 -1.15563,2.76812h-0.56437c-2.23063,0 -4.03125,1.80062 -4.03125,4.03125v2.6875c0,2.23063 1.80062,4.03125 4.03125,4.03125h0.56438c1.45125,0 2.17687,1.74687 1.15562,2.76812l-0.40312,0.40312c-1.58563,1.58563 -1.58563,4.13875 0,5.6975l1.90812,1.90812c1.55875,1.58563 4.11187,1.58563 5.6975,0l0.40312,-0.40312c1.02125,-1.02125 2.76813,-0.29563 2.76813,1.15562v0.56438c0,2.23063 1.80063,4.03125 4.03125,4.03125h2.6875c2.23062,0 4.03125,-1.80062 4.03125,-4.03125v-0.56438c0,-1.45125 1.74687,-2.17687 2.76812,-1.15562l0.40313,0.40312c1.58562,1.58563 4.13875,1.58563 5.6975,0l1.90812,-1.90812c1.58562,-1.55875 1.58562,-4.11188 0,-5.6975l-0.40313,-0.40312c-1.02125,-1.02125 -0.29563,-2.76812 1.15563,-2.76812h0.56437c2.23062,0 4.03125,-1.80062 4.03125,-4.03125v-2.6875c0,-2.23063 -1.80063,-4.03125 -4.03125,-4.03125zM56.4375,142.4375c-4.46125,0 -8.0625,-3.60125 -8.0625,-8.0625c0,-4.46125 3.60125,-8.0625 8.0625,-8.0625c4.46125,0 8.0625,3.60125 8.0625,8.0625c0,4.46125 -3.60125,8.0625 -8.0625,8.0625z" fill="url(#color-5)"></path></g></g></svg>