<svg version="1.1" xmlns="http://www.w3.org/2000/svg" xmlns:xlink="http://www.w3.org/1999/xlink" viewBox="0 0 172 172"><defs><linearGradient x1="85.98656" y1="26.90188" x2="85.98656" y2="131.6875" gradientUnits="userSpaceOnUse" id="color-1"><stop offset="0" stop-color="#3b82ff"></stop><stop offset="1" stop-color="#0fc6ff"></stop></linearGradient><linearGradient x1="67.12031" y1="32.27687" x2="67.12031" y2="118.25" gradientUnits="userSpaceOnUse" id="color-2"><stop offset="0" stop-color="#abc9ff"></stop><stop offset="1" stop-color="#7fe0ff"></stop></linearGradient></defs><g fill="none" fill-rule="nonzero" stroke="none" stroke-width="1" stroke-linecap="butt" stroke-linejoin="miter" stroke-miterlimit="10" stroke-dasharray="" stroke-dashoffset="0" font-family="none" font-weight="none" font-size="none" text-anchor="none" style="mix-blend-mode: normal"><path d="M0,172v-172h172v172z" fill="none"></path><g id="original-icon"><path d="M153.16063,91.75125c0.02687,-0.59125 0.05375,-1.15563 0.05375,-1.72c0,-12.76562 -9.40625,-23.3275 -21.63438,-25.23562c-1.20937,-18.3825 -16.36687,-37.89375 -36.28125,-37.89375c-13.30313,0 -25.42375,7.28312 -31.73938,18.86625c-3.92375,-1.8275 -8.19688,-2.76813 -12.49688,-2.76813c-16.31312,0 -29.58937,13.24938 -29.58937,29.5625c0,0.29563 0,0.59125 0.02688,0.88687c-11.04562,2.98313 -18.78562,13.03438 -18.78562,24.67125c0,14.10938 11.42188,25.50438 25.50438,25.50438h17.46875c0.24188,0 0.45688,-0.08062 0.69875,-0.13437c4.43437,4.99875 10.91125,8.19687 18.11375,8.19687h84.65625c11.12625,0 20.1025,-9.00312 20.1025,-20.12938c0,-9.70187 -6.82625,-17.9525 -16.09813,-19.80687zM43,118.25h-14.78125c-11.09937,0 -20.12938,-9.08375 -20.12938,-20.18312c0,-9.83625 7.04125,-18.1675 16.74313,-19.80688c1.3975,-0.24188 2.39188,-1.53187 2.23063,-2.98313c-0.1075,-0.88687 -0.16125,-1.80063 -0.16125,-2.71438c0,-13.33 10.83062,-24.16063 24.16063,-24.16063c4.3,0 8.57313,1.15562 12.30875,3.38625c0.67187,0.40312 1.45125,0.48375 2.20375,0.24188c0.72562,-0.215 1.34375,-0.7525 1.63937,-1.45125c4.97188,-11.12625 16.04438,-18.30187 28.19188,-18.30187c16.74313,0 29.455,16.52813 30.745,32.27688c-2.9025,0.16125 -5.77812,0.80625 -8.43875,1.935c-5.805,-8.03563 -14.99625,-12.73875 -24.99375,-12.73875c-16.63563,0 -30.26125,13.19563 -30.90625,29.67c-12.09375,1.34375 -21.44625,11.63687 -21.44625,24.05312c0,3.87 0.9675,7.76688 2.63375,10.77688zM149.15625,126.3125h-84.65625c-10.34688,0 -18.78563,-8.46563 -18.78563,-18.83937c0,-10.34688 8.41187,-18.75875 18.83937,-18.75875c0,0 0,0 0.02688,0c0.72562,0 1.42437,-0.3225 1.96187,-0.86c0.51063,-0.5375 0.77938,-1.23625 0.72563,-1.98875l-0.02688,-0.5375c0,-0.215 -0.02688,-0.45687 -0.02688,-0.67187c0,-14.0825 11.44875,-25.50438 25.50437,-25.50438c8.9225,0 17.03875,4.56875 21.74187,12.20125c0.7525,1.23625 2.33813,1.66625 3.60125,0.9675c2.92938,-1.58562 6.235,-2.41875 9.59438,-2.41875c11.09937,0 20.12937,9.03 20.12937,20.12937c0,1.12875 -0.1075,2.31125 -0.34938,3.57438c-0.13437,0.77938 0.08062,1.55875 0.56438,2.17688c0.45687,0.61812 1.1825,0.9675 1.96187,1.02125c7.82063,0.43 13.94812,6.88 13.94812,14.70063c0,8.14312 -6.61125,14.80812 -14.75437,14.80812z" fill="url(#color-1)"></path><path d="M126.15125,64.55375c-2.9025,0.16125 -5.77812,0.80625 -8.43875,1.935c-5.805,-8.03562 -14.99625,-12.73875 -24.99375,-12.73875c-16.63563,0 -30.26125,13.19563 -30.90625,29.67c-12.09375,1.34375 -21.44625,11.63687 -21.44625,24.05312c0,3.87 0.9675,7.76687 2.63375,10.77688h-14.78125c-11.09937,0 -20.12938,-9.08375 -20.12938,-20.18313c0,-9.83625 7.04125,-18.1675 16.74313,-19.80688c1.3975,-0.24187 2.39188,-1.53187 2.23063,-2.98312c-0.1075,-0.88688 -0.16125,-1.80063 -0.16125,-2.71438c0,-13.33 10.83062,-24.16063 24.16063,-24.16063c4.3,0 8.57313,1.15563 12.30875,3.38625c0.67187,0.40312 1.45125,0.48375 2.20375,0.24188c0.72562,-0.215 1.34375,-0.7525 1.63937,-1.45125c4.97188,-11.12625 16.04438,-18.30188 28.19188,-18.30188c16.74312,0 29.455,16.52813 30.745,32.27688z" fill="url(#color-2)"></path></g></g></svg>