<svg version="1.1" xmlns="http://www.w3.org/2000/svg" xmlns:xlink="http://www.w3.org/1999/xlink" viewBox="0 0 172 172"><defs><linearGradient x1="86" y1="16.57381" x2="86" y2="154.38344" gradientUnits="userSpaceOnUse" id="color-1"><stop offset="0" stop-color="#3b82ff"></stop><stop offset="1" stop-color="#0fc6ff"></stop></linearGradient><linearGradient x1="56.4375" y1="16.57381" x2="56.4375" y2="154.38344" gradientUnits="userSpaceOnUse" id="color-2"><stop offset="0" stop-color="#3b82ff"></stop><stop offset="1" stop-color="#0fc6ff"></stop></linearGradient><linearGradient x1="94.0625" y1="16.57381" x2="94.0625" y2="154.38344" gradientUnits="userSpaceOnUse" id="color-3"><stop offset="0" stop-color="#3b82ff"></stop><stop offset="1" stop-color="#0fc6ff"></stop></linearGradient><linearGradient x1="96.75" y1="16.57381" x2="96.75" y2="154.38344" gradientUnits="userSpaceOnUse" id="color-4"><stop offset="0" stop-color="#3b82ff"></stop><stop offset="1" stop-color="#0fc6ff"></stop></linearGradient><linearGradient x1="96.75" y1="16.57381" x2="96.75" y2="154.38344" gradientUnits="userSpaceOnUse" id="color-5"><stop offset="0" stop-color="#3b82ff"></stop><stop offset="1" stop-color="#0fc6ff"></stop></linearGradient><linearGradient x1="94.0625" y1="68.53125" x2="94.0625" y2="85.55656" gradientUnits="userSpaceOnUse" id="color-6"><stop offset="0" stop-color="#abc9ff"></stop><stop offset="1" stop-color="#7fe0ff"></stop></linearGradient></defs><g fill="none" fill-rule="nonzero" stroke="none" stroke-width="1" stroke-linecap="butt" stroke-linejoin="miter" stroke-miterlimit="10" stroke-dasharray="" stroke-dashoffset="0" font-family="none" font-weight="none" font-size="none" text-anchor="none" style="mix-blend-mode: normal"><path d="M0,172v-172h172v172z" fill="none"></path><g><path d="M147.8125,45.6875h-24.1875v-18.8125c0,-4.44513 -3.61738,-8.0625 -8.0625,-8.0625h-91.375c-4.44513,0 -8.0625,3.61737 -8.0625,8.0625v93.64594c0,2.30856 1.3545,4.32956 3.53138,5.27556c0.78475,0.34131 1.60981,0.50794 2.43219,0.50794c1.55069,0 3.09062,-0.59663 4.34031,-1.77106l18.19975,-19.72088h3.74637v18.8125c0,4.44512 3.61469,8.0625 8.0625,8.0625h70.93119l18.33681,19.86331c1.14756,1.07231 2.63913,1.634 4.16563,1.634c0.83312,0 1.67431,-0.16931 2.47519,-0.51331c2.17688,-0.946 3.52869,-2.967 3.52869,-5.27556v-93.64594c0,-4.44512 -3.61737,-8.0625 -8.0625,-8.0625zM42.27706,99.4375l-19.65906,21.31456c-0.31444,0.29563 -0.7095,0.16662 -0.82506,0.11288c-0.29294,-0.129 -0.29294,-0.29294 -0.29294,-0.344v-93.64594c0,-1.4835 1.204,-2.6875 2.6875,-2.6875h91.375c1.4835,0 2.6875,1.204 2.6875,2.6875v69.875c0,1.4835 -1.20669,2.6875 -2.6875,2.6875zM150.5,147.39594c0,0.05375 0,0.215 -0.29563,0.344c-0.11556,0.04837 -0.51063,0.18006 -0.688,0.02687l-19.79881,-21.45431h-73.28006c-1.4835,0 -2.6875,-1.204 -2.6875,-2.6875v-18.8125h61.8125c4.44512,0 8.0625,-3.61738 8.0625,-8.0625v-45.6875h24.1875c1.4835,0 2.6875,1.204 2.6875,2.6875z" fill="url(#color-1)"></path><path d="M69.58206,65.747c1.86781,-2.63375 2.98044,-5.83994 2.98044,-9.3095v-5.375c0,-8.89294 -7.23206,-16.125 -16.125,-16.125c-8.89294,0 -16.125,7.23206 -16.125,16.125v5.375c0,3.47225 1.11531,6.68113 2.9885,9.31756c-6.83431,4.43975 -11.051,12.02388 -11.051,20.24494v2.6875h48.375v-2.6875c0,-8.33931 -4.2355,-15.85356 -11.04294,-20.253zM45.6875,51.0625c0,-5.92862 4.82138,-10.75 10.75,-10.75c5.92862,0 10.75,4.82138 10.75,10.75v5.375c0,5.92862 -4.82138,10.75 -10.75,10.75c-5.92862,0 -10.75,-4.82138 -10.75,-10.75zM37.8185,83.3125c0.82506,-5.71631 4.257,-10.79569 9.36863,-13.69013c2.62031,1.84631 5.80769,2.94013 9.25037,2.94013c3.44537,0 6.63544,-1.09381 9.25844,-2.94281c5.0955,2.86756 8.54356,7.90931 9.36594,13.69281z" fill="url(#color-2)"></path><path d="M86,59.125h16.125v5.375h-16.125z" fill="url(#color-3)"></path><path d="M86,48.375h21.5v5.375h-21.5z" fill="url(#color-4)"></path><path d="M86,37.625h21.5v5.375h-21.5z" fill="url(#color-5)"></path><path d="M102.125,80.625c0,1.4835 -1.204,2.6875 -2.6875,2.6875h-10.75c-1.4835,0 -2.6875,-1.204 -2.6875,-2.6875v-8.0625c0,-1.4835 1.204,-2.6875 2.6875,-2.6875h10.75c1.4835,0 2.6875,1.204 2.6875,2.6875z" fill="url(#color-6)"></path></g></g></svg>