<svg version="1.1" xmlns="http://www.w3.org/2000/svg" xmlns:xlink="http://www.w3.org/1999/xlink" viewBox="0 0 172 172"><defs><linearGradient x1="99.4375" y1="36.61719" x2="99.4375" y2="56.11231" gradientUnits="userSpaceOnUse" id="color-1"><stop offset="0" stop-color="#abc9ff"></stop><stop offset="1" stop-color="#7fe0ff"></stop></linearGradient><linearGradient x1="86" y1="13.66594" x2="86" y2="152.05606" gradientUnits="userSpaceOnUse" id="color-2"><stop offset="0" stop-color="#3b82ff"></stop><stop offset="1" stop-color="#0fc6ff"></stop></linearGradient><linearGradient x1="104.8125" y1="13.66594" x2="104.8125" y2="152.05606" gradientUnits="userSpaceOnUse" id="color-3"><stop offset="0" stop-color="#3b82ff"></stop><stop offset="1" stop-color="#0fc6ff"></stop></linearGradient><linearGradient x1="104.8125" y1="13.66594" x2="104.8125" y2="152.05606" gradientUnits="userSpaceOnUse" id="color-4"><stop offset="0" stop-color="#3b82ff"></stop><stop offset="1" stop-color="#0fc6ff"></stop></linearGradient><linearGradient x1="77.9375" y1="13.66594" x2="77.9375" y2="152.05606" gradientUnits="userSpaceOnUse" id="color-5"><stop offset="0" stop-color="#3b82ff"></stop><stop offset="1" stop-color="#0fc6ff"></stop></linearGradient><linearGradient x1="104.8125" y1="13.66594" x2="104.8125" y2="152.05606" gradientUnits="userSpaceOnUse" id="color-6"><stop offset="0" stop-color="#3b82ff"></stop><stop offset="1" stop-color="#0fc6ff"></stop></linearGradient><linearGradient x1="77.9375" y1="13.66594" x2="77.9375" y2="152.05606" gradientUnits="userSpaceOnUse" id="color-7"><stop offset="0" stop-color="#3b82ff"></stop><stop offset="1" stop-color="#0fc6ff"></stop></linearGradient><linearGradient x1="104.8125" y1="13.66594" x2="104.8125" y2="152.05606" gradientUnits="userSpaceOnUse" id="color-8"><stop offset="0" stop-color="#3b82ff"></stop><stop offset="1" stop-color="#0fc6ff"></stop></linearGradient></defs><g fill="none" fill-rule="nonzero" stroke="none" stroke-width="1" stroke-linecap="butt" stroke-linejoin="miter" stroke-miterlimit="10" stroke-dasharray="" stroke-dashoffset="0" font-family="none" font-weight="none" font-size="none" text-anchor="none" style="mix-blend-mode: normal"><path d="M0,172v-172h172v172z" fill="none"></path><g><path d="M120.9375,53.75h-43c-1.4835,0 -2.6875,-1.204 -2.6875,-2.6875v-10.75c0,-1.4835 1.204,-2.6875 2.6875,-2.6875h43c1.4835,0 2.6875,1.204 2.6875,2.6875v10.75c0,1.4835 -1.204,2.6875 -2.6875,2.6875z" fill="url(#color-1)"></path><path d="M137.0625,16.125h-13.4375h-10.75h-51.0625c-4.44512,0 -8.0625,3.61737 -8.0625,8.0625v13.4375h-18.8125c-4.44513,0 -8.0625,3.61738 -8.0625,8.0625v102.125c0,4.44512 3.61737,8.0625 8.0625,8.0625h75.25c4.44512,0 8.0625,-3.61738 8.0625,-8.0625v-13.4375h18.8125c4.44512,0 8.0625,-3.61738 8.0625,-8.0625v-102.125c0,-4.44513 -3.61737,-8.0625 -8.0625,-8.0625zM137.0625,129h-10.75v-11.42187c0,-1.10994 0.90569,-2.01562 2.01563,-2.01562h11.42188v10.75c0,1.4835 -1.204,2.6875 -2.6875,2.6875zM139.75,110.1875h-11.42187c-4.07694,0 -7.39062,3.31369 -7.39062,7.39063v11.42188h-59.125c-1.4835,0 -2.6875,-1.204 -2.6875,-2.6875v-64.5h-16.125v5.375h10.75v5.375h-10.75v5.375h10.75v5.375h-10.75v5.375h10.75v2.6875v2.6875h-10.75v5.375h10.75v5.375h-10.75v5.375h10.75v16.125c0,4.44512 3.61738,8.0625 8.0625,8.0625h51.0625v13.4375c0,1.4835 -1.204,2.6875 -2.6875,2.6875h-75.25c-1.4835,0 -2.6875,-1.204 -2.6875,-2.6875v-102.125c0,-1.4835 1.204,-2.6875 2.6875,-2.6875h24.1875v-18.8125c0,-1.4835 1.204,-2.6875 2.6875,-2.6875h75.25c1.4835,0 2.6875,1.204 2.6875,2.6875z" fill="url(#color-2)"></path><rect x="32" y="27" transform="scale(2.6875,2.6875)" width="14" height="2" fill="url(#color-3)"></rect><rect x="32" y="36" transform="scale(2.6875,2.6875)" width="14" height="2" fill="url(#color-4)"></rect><rect x="28" y="23" transform="scale(2.6875,2.6875)" width="2" height="2" fill="url(#color-5)"></rect><rect x="32" y="23" transform="scale(2.6875,2.6875)" width="14" height="2" fill="url(#color-6)"></rect><rect x="28" y="32" transform="scale(2.6875,2.6875)" width="2" height="2" fill="url(#color-7)"></rect><rect x="32" y="32" transform="scale(2.6875,2.6875)" width="14" height="2" fill="url(#color-8)"></rect></g></g></svg>