<svg version="1.1" xmlns="http://www.w3.org/2000/svg" xmlns:xlink="http://www.w3.org/1999/xlink" viewBox="0 0 226 226"><defs><linearGradient x1="127.125" y1="35.5385" x2="127.125" y2="185.66959" gradientUnits="userSpaceOnUse" id="color-1"><stop offset="0" stop-color="#8ab4ff"></stop><stop offset="1" stop-color="#7ddaff"></stop></linearGradient><linearGradient x1="90.04688" y1="35.5385" x2="90.04688" y2="185.66959" gradientUnits="userSpaceOnUse" id="color-2"><stop offset="0" stop-color="#8ab4ff"></stop><stop offset="1" stop-color="#7ddaff"></stop></linearGradient><linearGradient x1="70.625" y1="35.5385" x2="70.625" y2="185.66959" gradientUnits="userSpaceOnUse" id="color-3"><stop offset="0" stop-color="#8ab4ff"></stop><stop offset="1" stop-color="#7ddaff"></stop></linearGradient><linearGradient x1="141.25" y1="14.79947" x2="141.25" y2="207.78581" gradientUnits="userSpaceOnUse" id="color-4"><stop offset="0" stop-color="#1a6dff"></stop><stop offset="1" stop-color="#0fc6ff"></stop></linearGradient><linearGradient x1="113" y1="14.79947" x2="113" y2="207.78581" gradientUnits="userSpaceOnUse" id="color-5"><stop offset="0" stop-color="#1a6dff"></stop><stop offset="1" stop-color="#0fc6ff"></stop></linearGradient><linearGradient x1="127.125" y1="14.79947" x2="127.125" y2="207.78581" gradientUnits="userSpaceOnUse" id="color-6"><stop offset="0" stop-color="#1a6dff"></stop><stop offset="1" stop-color="#0fc6ff"></stop></linearGradient><linearGradient x1="113" y1="14.79947" x2="113" y2="207.78581" gradientUnits="userSpaceOnUse" id="color-7"><stop offset="0" stop-color="#1a6dff"></stop><stop offset="1" stop-color="#0fc6ff"></stop></linearGradient><linearGradient x1="42.375" y1="14.79947" x2="42.375" y2="207.78581" gradientUnits="userSpaceOnUse" id="color-8"><stop offset="0" stop-color="#1a6dff"></stop><stop offset="1" stop-color="#0fc6ff"></stop></linearGradient><linearGradient x1="183.625" y1="14.79947" x2="183.625" y2="207.78581" gradientUnits="userSpaceOnUse" id="color-9"><stop offset="0" stop-color="#1a6dff"></stop><stop offset="1" stop-color="#0fc6ff"></stop></linearGradient></defs><g fill="none" fill-rule="nonzero" stroke="none" stroke-width="1" stroke-linecap="butt" stroke-linejoin="miter" stroke-miterlimit="10" stroke-dasharray="" stroke-dashoffset="0" font-family="none" font-weight="none" font-size="none" text-anchor="none" style="mix-blend-mode: normal"><path d="M0,226v-226h226v226z" fill="none"></path><g><path d="M133.78494,40.27744l-3.19931,6.29622c13.11153,6.667 21.25812,19.94097 21.25812,34.64509v74.15625c0,13.63063 -11.08812,24.71875 -24.71875,24.71875c-13.63062,0 -24.71875,-11.08812 -24.71875,-24.71875v-74.15625c0,-5.84069 4.75306,-10.59375 10.59375,-10.59375c5.84069,0 10.59375,4.75306 10.59375,10.59375v60.03125h7.0625v-60.03125c0,-9.73566 -7.92059,-17.65625 -17.65625,-17.65625c-9.73566,0 -17.65625,7.92059 -17.65625,17.65625v74.15625c0,17.52206 14.25919,31.78125 31.78125,31.78125c17.52206,0 31.78125,-14.25919 31.78125,-31.78125v-74.15625c0,-17.37375 -9.62619,-33.06309 -25.12131,-40.94131z" fill="url(#color-1)"></path><path d="M113,35.3125c-25.312,0 -45.90625,20.59425 -45.90625,45.90625h7.0625c0,-21.41703 17.42672,-38.84375 38.84375,-38.84375z" fill="url(#color-2)"></path><rect x="19" y="26.895" transform="scale(3.53125,3.53125)" width="2" height="25.105" fill="url(#color-3)"></rect><g><rect x="39" y="28" transform="scale(3.53125,3.53125)" width="2" height="2" fill="url(#color-4)"></rect><path d="M137.71875,81.21875v10.59375h7.0625v-10.59375c0,-17.52206 -14.25919,-31.78125 -31.78125,-31.78125c-17.52206,0 -31.78125,14.25919 -31.78125,31.78125v85.95063h7.0625v-85.95062c0,-13.63062 11.08813,-24.71875 24.71875,-24.71875c13.63062,0 24.71875,11.08813 24.71875,24.71875z" fill="url(#color-5)"></path><path d="M144.78125,155.375v-35.3125h-7.0625v35.3125c0,5.84069 -4.75306,10.59375 -10.59375,10.59375c-5.84069,0 -10.59375,-4.75306 -10.59375,-10.59375v-70.625h-7.0625v70.625c0,9.73566 7.92059,17.65625 17.65625,17.65625c9.73566,0 17.65625,-7.92059 17.65625,-17.65625z" fill="url(#color-6)"></path><path d="M113,21.1875c-33.10194,0 -60.03125,26.92931 -60.03125,60.03125v105.9375c0,9.73566 7.92059,17.65625 17.65625,17.65625c9.73566,0 17.65625,-7.92059 17.65625,-17.65625v-9.16712h-7.0625v9.16712c0,5.84069 -4.75306,10.59375 -10.59375,10.59375c-5.84069,0 -10.59375,-4.75306 -10.59375,-10.59375v-105.9375c0,-29.20697 23.76178,-52.96875 52.96875,-52.96875c29.20697,0 52.96875,23.76178 52.96875,52.96875v77.6875c0,21.41703 -17.42672,38.84375 -38.84375,38.84375v7.0625c25.312,0 45.90625,-20.59425 45.90625,-45.90625v-77.6875c0,-33.10194 -26.92931,-60.03125 -60.03125,-60.03125z" fill="url(#color-7)"></path><rect x="11" y="27" transform="scale(3.53125,3.53125)" width="2" height="22" fill="url(#color-8)"></rect><rect x="51" y="19" transform="scale(3.53125,3.53125)" width="2" height="12" fill="url(#color-9)"></rect></g></g></g></svg>