<svg xmlns="http://www.w3.org/2000/svg" viewBox="0 0 64 64"><linearGradient id="HNO3o2j_3C0JpFkUnD7~va" x1="32" x2="32" y1="9" y2="55" gradientUnits="userSpaceOnUse" spreadMethod="reflect"><stop offset="0" stop-color="#1a6dff"/><stop offset="1" stop-color="#0fc6ff"/></linearGradient><path fill="url(#HNO3o2j_3C0JpFkUnD7~va)" d="M54.95,53.687l-14.5-44l-0.006,0.002c-0.032-0.096-0.073-0.19-0.134-0.274 C40.122,9.154,39.821,9,39.5,9h-15c-0.432,0-0.814,0.277-0.95,0.687l-14.5,44c-0.101,0.306-0.048,0.64,0.14,0.899S9.679,55,10,55 h10.66c3.03,0,5.703-1.932,6.649-4.808l4.689-14.232l4.692,14.232C37.637,53.068,40.31,55,43.34,55H54 c0.321,0,0.622-0.154,0.81-0.414S55.05,53.992,54.95,53.687z M25.41,49.567C24.734,51.62,22.825,53,20.66,53h-9.278l13.841-42 h12.895L25.41,49.567z M43.34,53c-2.165,0-4.074-1.38-4.75-3.434l-5.538-16.801l6.448-19.57L52.618,53H43.34z"/><linearGradient id="HNO3o2j_3C0JpFkUnD7~vb" x1="36.275" x2="36.275" y1="13.2" y2="51.2" gradientUnits="userSpaceOnUse" spreadMethod="reflect"><stop offset="0" stop-color="#6dc7ff"/><stop offset="1" stop-color="#0fc6ff"/></linearGradient><path fill="url(#HNO3o2j_3C0JpFkUnD7~vb)" d="M39.5,13.2v38c-0.39-0.47-0.71-1.02-0.91-1.63l-5.54-16.8L39.5,13.2z"/></svg>