<svg version="1.1" xmlns="http://www.w3.org/2000/svg" xmlns:xlink="http://www.w3.org/1999/xlink" viewBox="0 0 226 226"><defs><linearGradient x1="113" y1="33.98828" x2="113" y2="45.0305" gradientUnits="userSpaceOnUse" id="color-1"><stop offset="0" stop-color="#8ab4ff"></stop><stop offset="1" stop-color="#7ddaff"></stop></linearGradient><linearGradient x1="113" y1="24.71875" x2="113" y2="198.24084" gradientUnits="userSpaceOnUse" id="color-2"><stop offset="0" stop-color="#1a6dff"></stop><stop offset="1" stop-color="#0fc6ff"></stop></linearGradient><linearGradient x1="111.23438" y1="24.71875" x2="111.23438" y2="198.24084" gradientUnits="userSpaceOnUse" id="color-3"><stop offset="0" stop-color="#1a6dff"></stop><stop offset="1" stop-color="#0fc6ff"></stop></linearGradient><linearGradient x1="58.26563" y1="24.71875" x2="58.26563" y2="198.24084" gradientUnits="userSpaceOnUse" id="color-4"><stop offset="0" stop-color="#1a6dff"></stop><stop offset="1" stop-color="#0fc6ff"></stop></linearGradient><linearGradient x1="51.20313" y1="24.71875" x2="51.20313" y2="198.24084" gradientUnits="userSpaceOnUse" id="color-5"><stop offset="0" stop-color="#1a6dff"></stop><stop offset="1" stop-color="#0fc6ff"></stop></linearGradient></defs><g fill="none" fill-rule="nonzero" stroke="none" stroke-width="1" stroke-linecap="butt" stroke-linejoin="miter" stroke-miterlimit="10" stroke-dasharray="" stroke-dashoffset="0" font-family="none" font-weight="none" font-size="none" text-anchor="none" style="mix-blend-mode: normal"><path d="M0,226v-226h226v226z" fill="none"></path><g id="Layer_1"><path d="M35.3125,35.3125h155.375v7.0625h-155.375z" fill="url(#color-1)"></path><path d="M194.21875,21.1875h-162.4375c-6.00313,0 -10.59375,4.59062 -10.59375,10.59375v14.125c0,4.59063 2.825,8.475 7.0625,9.8875v78.39375c0,9.8875 7.76875,17.65625 17.65625,17.65625h52.96875c0,3.88438 3.17812,7.0625 7.0625,7.0625h3.53125v10.94688c-8.12188,1.76563 -14.125,8.82813 -14.125,17.30312c0,9.8875 7.76875,17.65625 17.65625,17.65625c9.8875,0 17.65625,-7.76875 17.65625,-17.65625c0,-8.475 -6.00313,-15.5375 -14.125,-17.30312v-10.94688h3.53125c3.88438,0 7.0625,-3.17812 7.0625,-7.0625h52.96875c9.8875,0 17.65625,-7.76875 17.65625,-17.65625v-78.39375c4.2375,-1.4125 7.0625,-5.29687 7.0625,-9.8875v-14.125c0,-6.00313 -4.59062,-10.59375 -10.59375,-10.59375zM123.59375,187.15625c0,6.00313 -4.59062,10.59375 -10.59375,10.59375c-6.00313,0 -10.59375,-4.59062 -10.59375,-10.59375c0,-6.00313 4.59063,-10.59375 10.59375,-10.59375c6.00313,0 10.59375,4.59062 10.59375,10.59375zM190.6875,134.1875c0,6.00313 -4.59062,10.59375 -10.59375,10.59375h-134.1875c-6.00312,0 -10.59375,-4.59062 -10.59375,-10.59375v-77.6875h56.5c0,3.88438 3.17812,7.0625 7.0625,7.0625h28.25c3.88438,0 7.0625,-3.17812 7.0625,-7.0625h56.5zM197.75,45.90625c0,2.11875 -1.4125,3.53125 -3.53125,3.53125h-162.4375c-2.11875,0 -3.53125,-1.4125 -3.53125,-3.53125v-14.125c0,-2.11875 1.4125,-3.53125 3.53125,-3.53125h162.4375c2.11875,0 3.53125,1.4125 3.53125,3.53125z" fill="url(#color-2)"></path><path d="M133.48125,116.88438c-0.70625,0 -1.76562,-0.35313 -2.825,-0.35313c-1.76562,0 -3.17812,0.35313 -4.59062,1.05937l-21.1875,-21.1875c0.70625,-1.4125 1.05938,-2.825 1.05938,-4.59063c0,-6.00312 -4.59063,-10.59375 -10.59375,-10.59375c-6.00312,0 -10.59375,4.59063 -10.59375,10.59375c0,1.4125 0.35313,2.825 0.70625,4.2375l-24.0125,21.89375c-1.4125,-1.05937 -3.17813,-1.4125 -4.94375,-1.4125c-6.00312,0 -10.59375,4.59062 -10.59375,10.59375c0,6.00313 4.59063,10.59375 10.59375,10.59375c6.00312,0 10.59375,-4.59062 10.59375,-10.59375c0,-1.4125 -0.35313,-2.825 -0.70625,-4.2375l24.0125,-21.89375c1.4125,1.05938 3.17812,1.4125 4.94375,1.4125c1.76563,0 3.17812,-0.35313 4.59063,-1.05938l21.1875,21.1875c-0.70625,1.4125 -1.05937,2.825 -1.05937,4.59062c0,6.00313 4.59062,10.59375 10.59375,10.59375c6.00313,0 10.59375,-4.59062 10.59375,-10.59375c0,-2.11875 -0.70625,-4.2375 -1.76562,-6.00313l23.65938,-33.19375c1.05937,0.35313 1.76563,0.35313 2.825,0.35313c6.00313,0 10.59375,-4.59063 10.59375,-10.59375c0,-6.00312 -4.59062,-10.59375 -10.59375,-10.59375c-6.00313,0 -10.59375,4.59063 -10.59375,10.59375c0,2.11875 0.70625,4.2375 1.76563,6.00312zM56.5,130.65625c-2.11875,0 -3.53125,-1.4125 -3.53125,-3.53125c0,-2.11875 1.4125,-3.53125 3.53125,-3.53125c2.11875,0 3.53125,1.4125 3.53125,3.53125c0,2.11875 -1.4125,3.53125 -3.53125,3.53125zM95.34375,95.34375c-2.11875,0 -3.53125,-1.4125 -3.53125,-3.53125c0,-2.11875 1.4125,-3.53125 3.53125,-3.53125c2.11875,0 3.53125,1.4125 3.53125,3.53125c0,2.11875 -1.4125,3.53125 -3.53125,3.53125zM130.65625,130.65625c-2.11875,0 -3.53125,-1.4125 -3.53125,-3.53125c0,-2.11875 1.4125,-3.53125 3.53125,-3.53125c2.11875,0 3.53125,1.4125 3.53125,3.53125c0,2.11875 -1.4125,3.53125 -3.53125,3.53125zM165.96875,74.15625c2.11875,0 3.53125,1.4125 3.53125,3.53125c0,2.11875 -1.4125,3.53125 -3.53125,3.53125c-2.11875,0 -3.53125,-1.4125 -3.53125,-3.53125c0,-2.11875 1.4125,-3.53125 3.53125,-3.53125z" fill="url(#color-3)"></path><rect x="12" y="18" transform="scale(3.53125,3.53125)" width="9" height="2" fill="url(#color-4)"></rect><rect x="12" y="22" transform="scale(3.53125,3.53125)" width="5" height="2" fill="url(#color-5)"></rect></g></g></svg>