<svg width="26" height="26" viewBox="0 0 26 26" fill="none" xmlns="http://www.w3.org/2000/svg">
<path d="M13 26C20.1797 26 26 20.1797 26 13C26 5.8203 20.1797 0 13 0C5.8203 0 0 5.8203 0 13C0 20.1797 5.8203 26 13 26Z" fill="url(#paint0_linear)"/>
<path d="M16.7239 21.125H9.27611C6.84938 21.125 4.875 19.1508 4.875 16.7239V9.27611C4.875 6.84917 6.84938 4.875 9.27611 4.875H16.7239C19.1508 4.875 21.125 6.84917 21.125 9.27611V16.7241C21.125 19.1508 19.1508 21.125 16.7239 21.125ZM9.27611 6.22923C7.59606 6.22923 6.22923 7.59606 6.22923 9.27611V16.7241C6.22923 18.4041 7.59606 19.771 9.27611 19.771H16.7239C18.4039 19.771 19.7708 18.4041 19.7708 16.7241V9.27611C19.7708 7.59606 18.4039 6.22923 16.7239 6.22923H9.27611Z" fill="white"/>
<path d="M13 17.0625C10.7599 17.0625 8.9375 15.2399 8.9375 13C8.9375 10.7597 10.7599 8.9375 13 8.9375C15.2401 8.9375 17.0625 10.7597 17.0625 13C17.0625 15.2399 15.2401 17.0625 13 17.0625ZM13 10.2917C11.5066 10.2917 10.2917 11.5066 10.2917 13C10.2917 14.4936 11.5066 15.7083 13 15.7083C14.4934 15.7083 15.7083 14.4936 15.7083 13C15.7083 11.5066 14.4936 10.2917 13 10.2917Z" fill="white"/>
<path d="M17.3164 9.61453C17.8306 9.61453 18.2473 9.19774 18.2473 8.68361C18.2473 8.16947 17.8306 7.75269 17.3164 7.75269C16.8023 7.75269 16.3855 8.16947 16.3855 8.68361C16.3855 9.19774 16.8023 9.61453 17.3164 9.61453Z" fill="white"/>
<defs>
<linearGradient id="paint0_linear" x1="5.543" y1="23.65" x2="20.4572" y2="2.35024" gradientUnits="userSpaceOnUse">
<stop stop-color="#FFB900"/>
<stop offset="1" stop-color="#9100EB"/>
</linearGradient>
</defs>
</svg>
