<svg version="1.1" xmlns="http://www.w3.org/2000/svg" xmlns:xlink="http://www.w3.org/1999/xlink" viewBox="0 0 172 172"><defs><linearGradient x1="86" y1="26.875" x2="86" y2="147.56256" gradientUnits="userSpaceOnUse" id="color-1"><stop offset="0" stop-color="#1a6dff"></stop><stop offset="1" stop-color="#0fc6ff"></stop></linearGradient><linearGradient x1="77.9375" y1="26.875" x2="77.9375" y2="147.56256" gradientUnits="userSpaceOnUse" id="color-2"><stop offset="0" stop-color="#1a6dff"></stop><stop offset="1" stop-color="#0fc6ff"></stop></linearGradient><linearGradient x1="69.875" y1="26.875" x2="69.875" y2="147.56256" gradientUnits="userSpaceOnUse" id="color-3"><stop offset="0" stop-color="#1a6dff"></stop><stop offset="1" stop-color="#0fc6ff"></stop></linearGradient><linearGradient x1="61.8125" y1="26.875" x2="61.8125" y2="147.56256" gradientUnits="userSpaceOnUse" id="color-4"><stop offset="0" stop-color="#1a6dff"></stop><stop offset="1" stop-color="#0fc6ff"></stop></linearGradient><linearGradient x1="75.25" y1="23.51563" x2="75.25" y2="47.18444" gradientUnits="userSpaceOnUse" id="color-5"><stop offset="0" stop-color="#8ab4ff"></stop><stop offset="1" stop-color="#7ddaff"></stop></linearGradient><linearGradient x1="110.1875" y1="23.51563" x2="110.1875" y2="47.18444" gradientUnits="userSpaceOnUse" id="color-6"><stop offset="0" stop-color="#8ab4ff"></stop><stop offset="1" stop-color="#7ddaff"></stop></linearGradient></defs><g fill="none" fill-rule="nonzero" stroke="none" stroke-width="1" stroke-linecap="butt" stroke-linejoin="miter" stroke-miterlimit="10" stroke-dasharray="" stroke-dashoffset="0" font-family="none" font-weight="none" font-size="none" text-anchor="none" style="mix-blend-mode: normal"><path d="M0,172v-172h172v172z" fill="none"></path><g><path d="M147.8125,51.0625h-94.0625v-13.4375c0,-4.44512 -3.61738,-8.0625 -8.0625,-8.0625h-21.5c-4.44513,0 -8.0625,3.61738 -8.0625,8.0625c0,4.44512 3.61737,8.0625 8.0625,8.0625h24.1875v8.0625v2.6875v10.75h72.5625v-5.375h-67.1875v-5.375h94.0625c1.4835,0 2.6875,1.20669 2.6875,2.6875v10.75c0,2.52356 -1.204,4.93694 -3.22231,6.45l-35.83513,26.875c-1.38944,1.04006 -3.10406,1.6125 -4.8375,1.6125h-50.16756c-4.44512,0 -8.0625,3.61738 -8.0625,8.0625v8.33394c-6.12481,1.24969 -10.75,6.67575 -10.75,13.16606c0,7.40944 6.02806,13.4375 13.4375,13.4375c6.49031,0 11.91638,-4.62519 13.16606,-10.75h22.04287c1.24969,6.12481 6.67575,10.75 13.16606,10.75c7.40944,0 13.4375,-6.02806 13.4375,-13.4375c0,-7.40944 -6.02806,-13.4375 -13.4375,-13.4375c-6.49031,0 -11.91637,4.62519 -13.16606,10.75h-22.04287c-1.07231,-5.25675 -5.22181,-9.40625 -10.47856,-10.47856v-8.33394c0,-1.48081 1.204,-2.6875 2.6875,-2.6875h50.16756c2.88638,0 5.75125,-0.95406 8.05981,-2.6875l35.83781,-26.875c3.36475,-2.52356 5.37231,-6.54406 5.37231,-10.75v-10.75c0,-4.44512 -3.61737,-8.0625 -8.0625,-8.0625zM24.1875,40.3125c-1.4835,0 -2.6875,-1.20669 -2.6875,-2.6875c0,-1.48081 1.204,-2.6875 2.6875,-2.6875h21.5c1.4835,0 2.6875,1.20669 2.6875,2.6875v2.6875zM99.4375,126.3125c4.44512,0 8.0625,3.61738 8.0625,8.0625c0,4.44512 -3.61738,8.0625 -8.0625,8.0625c-4.44512,0 -8.0625,-3.61738 -8.0625,-8.0625c0,-4.44512 3.61737,-8.0625 8.0625,-8.0625zM59.125,134.375c0,4.44512 -3.61738,8.0625 -8.0625,8.0625c-4.44512,0 -8.0625,-3.61738 -8.0625,-8.0625c0,-4.44512 3.61738,-8.0625 8.0625,-8.0625c4.44512,0 8.0625,3.61737 8.0625,8.0625z" fill="url(#color-1)"></path><path d="M48.375,72.5625h59.125v5.375h-59.125z" fill="url(#color-2)"></path><path d="M48.375,83.3125h43v5.375h-43z" fill="url(#color-3)"></path><path d="M48.375,94.0625h26.875v5.375h-26.875z" fill="url(#color-4)"></path><path d="M91.375,45.6875h-32.25v-18.8125c0,-1.4835 1.204,-2.6875 2.6875,-2.6875h26.875c1.4835,0 2.6875,1.204 2.6875,2.6875z" fill="url(#color-5)"></path><path d="M123.625,45.6875h-26.875v-8.0625c0,-1.4835 1.204,-2.6875 2.6875,-2.6875h21.5c1.4835,0 2.6875,1.204 2.6875,2.6875z" fill="url(#color-6)"></path></g></g></svg>