<svg width="24" height="26" viewBox="0 0 24 26" fill="none" xmlns="http://www.w3.org/2000/svg">
<path d="M14.6444 0H9.35564C4.25213 0 0.10022 4.08271 0.10022 9.10116V13.0017C0.10022 16.5249 2.16662 19.7222 5.38903 21.2262V25.5699C5.38903 25.9471 5.86883 26.1442 6.1414 25.8764L9.97886 22.1028H14.6444C19.7479 22.1028 23.8998 18.0201 23.8998 13.0017V9.10116C23.8998 4.08271 19.7479 0 14.6444 0Z" fill="#665CAC"/>
<path d="M18.6541 16.1535L18.2578 14.0427C18.225 13.8684 18.0877 13.7312 17.9108 13.6964L14.7944 13.0835C14.6496 13.0552 14.5005 13.0996 14.3962 13.2021L13.1301 14.4471C10.9969 13.5072 9.81296 12.3405 8.77123 10.1528L10.0333 8.91182C10.1374 8.80934 10.1827 8.66238 10.1538 8.52029L9.53053 5.45575C9.49515 5.28192 9.35567 5.14675 9.17833 5.11455L7.03178 4.72496C6.97301 4.71434 6.91249 4.71546 6.85413 4.72851C6.28736 4.85511 5.77022 5.13593 5.35858 5.54081C4.64582 6.24169 4.37341 7.26442 4.57088 8.49846C4.90237 10.5706 5.9348 13.4544 7.83961 15.335L7.86564 15.3604C9.7766 17.2321 12.7093 18.2474 14.8167 18.5734C15.0822 18.6146 15.3379 18.6349 15.5831 18.6349C16.4969 18.6349 17.2625 18.3515 17.8246 17.7988C18.2362 17.394 18.5219 16.8855 18.6506 16.3283C18.6637 16.2708 18.6649 16.2114 18.6541 16.1535Z" fill="white"/>
<path d="M12.8815 7.36768C12.6381 7.36768 12.4408 7.56171 12.4408 7.80104C12.4408 8.04037 12.6381 8.23441 12.8815 8.23441C13.8536 8.23441 14.6444 9.01207 14.6444 9.96798C14.6444 10.2041 14.845 10.4013 15.0851 10.4013C15.3253 10.4013 15.5259 10.2041 15.5259 9.96798C15.5259 8.53412 14.3396 7.36768 12.8815 7.36768Z" fill="white"/>
<path d="M12.8815 5.63428C12.7184 5.63428 12.5539 5.64316 12.3924 5.66068C12.1504 5.68694 11.9759 5.90108 12.0026 6.13904C12.0293 6.377 12.2476 6.54814 12.4891 6.52229C12.6186 6.50822 12.7506 6.50106 12.8815 6.50106C14.8256 6.50106 16.4073 8.05639 16.4073 9.96815C16.4073 10.0969 16.4001 10.2267 16.3857 10.354C16.3594 10.5887 16.5367 10.8065 16.7755 10.8324C17.0142 10.8582 17.2356 10.6839 17.262 10.4491C17.2798 10.2903 17.2888 10.1285 17.2888 9.96815C17.2888 7.57849 15.3117 5.63428 12.8815 5.63428Z" fill="white"/>
<path d="M12.8819 3.90063C12.7244 3.90063 12.5649 3.90653 12.4079 3.91826C12.1651 3.93633 11.9833 4.14454 12.0016 4.38316C12.02 4.62183 12.2324 4.80068 12.4744 4.7826C12.6094 4.7725 12.7465 4.76742 12.8819 4.76742C15.7982 4.76742 18.1707 7.10041 18.1707 9.96807C18.1707 10.3738 18.1231 10.7777 18.0292 11.1685C17.9753 11.3925 18.1156 11.6253 18.3414 11.6861C18.579 11.7501 18.8304 11.6036 18.887 11.3679C18.9966 10.9118 19.0522 10.4409 19.0522 9.96807C19.0522 6.62246 16.2842 3.90063 12.8819 3.90063Z" fill="white"/>
</svg>
